<svg xmlns="http://www.w3.org/2000/svg" xmlns:xlink="http://www.w3.org/1999/xlink" width="774" zoomAndPan="magnify" viewBox="0 0 580.5 711.749979" height="949" preserveAspectRatio="xMidYMid meet" version="1.0"><defs><clipPath id="d8308d55ad"><path d="M 138 417 L 233 417 L 233 468 L 138 468 Z M 138 417 " clip-rule="nonzero"/></clipPath><clipPath id="eae0a1e031"><path d="M 139.007812 482.070312 L 127.328125 424.746094 L 231.683594 403.484375 L 243.363281 460.804688 Z M 139.007812 482.070312 " clip-rule="nonzero"/></clipPath><clipPath id="ea068f0402"><path d="M 139.007812 482.070312 L 127.328125 424.746094 L 231.683594 403.484375 L 243.363281 460.804688 Z M 139.007812 482.070312 " clip-rule="nonzero"/></clipPath><clipPath id="09dbf5b47b"><path d="M 306 419 L 400 419 L 400 470 L 306 470 Z M 306 419 " clip-rule="nonzero"/></clipPath><clipPath id="a79ea141ad"><path d="M 293.59375 459.03125 L 308.5625 402.476562 L 411.519531 429.726562 L 396.550781 486.28125 Z M 293.59375 459.03125 " clip-rule="nonzero"/></clipPath><clipPath id="a6d89f798d"><path d="M 396.664062 486.308594 L 411.632812 429.757812 L 308.675781 402.507812 L 293.707031 459.0625 Z M 396.664062 486.308594 " clip-rule="nonzero"/></clipPath><clipPath id="081c5f1d0b"><path d="M 298 310 L 431 310 L 431 443 L 298 443 Z M 298 310 " clip-rule="nonzero"/></clipPath><clipPath id="2dd115eab6"><path d="M 397.984375 264.570312 L 477.535156 344.121094 L 331.691406 489.960938 L 252.144531 410.410156 Z M 397.984375 264.570312 " clip-rule="nonzero"/></clipPath><clipPath id="4790a0ca6f"><path d="M 477.542969 344.128906 L 397.992188 264.578125 L 252.152344 410.417969 L 331.699219 489.96875 Z M 477.542969 344.128906 " clip-rule="nonzero"/></clipPath><clipPath id="90f3d72163"><path d="M 75.371094 146 L 390.371094 146 L 390.371094 342 L 75.371094 342 Z M 75.371094 146 " clip-rule="nonzero"/></clipPath><clipPath id="c447015a07"><path d="M 155 204 L 335 204 L 335 444.304688 L 155 444.304688 Z M 155 204 " clip-rule="nonzero"/></clipPath><clipPath id="2223b61066"><path d="M 271 135 L 439 135 L 439 339 L 271 339 Z M 271 135 " clip-rule="nonzero"/></clipPath><clipPath id="b399d91dfa"><path d="M 325.765625 397.644531 L 203.382812 299.703125 L 382.863281 75.429688 L 505.25 173.371094 Z M 325.765625 397.644531 " clip-rule="nonzero"/></clipPath><clipPath id="a869e26a92"><path d="M 203.527344 299.820312 L 325.914062 397.761719 L 505.394531 173.488281 L 383.011719 75.546875 Z M 203.527344 299.820312 " clip-rule="nonzero"/></clipPath><clipPath id="e3666f6c34"><path d="M 180.40625 462.683594 L 354.40625 462.683594 L 354.40625 636.683594 L 180.40625 636.683594 Z M 180.40625 462.683594 " clip-rule="nonzero"/></clipPath></defs><g clip-path="url(#d8308d55ad)"><g clip-path="url(#eae0a1e031)"><g clip-path="url(#ea068f0402)"><path fill="#36594a" d="M 180.398438 418.582031 C 206.449219 413.273438 232.441406 432.902344 232.441406 432.902344 C 232.441406 432.902344 216.316406 461.691406 190.265625 466.996094 C 164.210938 472.304688 138.105469 452.125 138.105469 452.125 C 138.105469 452.125 154.347656 423.890625 180.398438 418.582031 " fill-opacity="1" fill-rule="nonzero"/></g></g></g><g clip-path="url(#09dbf5b47b)"><g clip-path="url(#a79ea141ad)"><g clip-path="url(#a6d89f798d)"><path fill="#36594a" d="M 359.003906 420.539062 C 333.304688 413.738281 306.222656 431.835938 306.222656 431.835938 C 306.222656 431.835938 320.664062 461.503906 346.363281 468.308594 C 372.066406 475.109375 399.292969 456.46875 399.292969 456.46875 C 399.292969 456.46875 384.707031 427.34375 359.003906 420.539062 " fill-opacity="1" fill-rule="nonzero"/></g></g></g><g clip-path="url(#081c5f1d0b)"><g clip-path="url(#2dd115eab6)"><g clip-path="url(#4790a0ca6f)"><path fill="#22c683" d="M 331.289062 343.667969 C 294.878906 380.078125 298.574219 442.804688 298.574219 442.804688 C 298.574219 442.804688 362.070312 447.269531 398.480469 410.859375 C 434.890625 374.445312 430.429688 310.949219 430.429688 310.949219 C 430.429688 310.949219 367.703125 307.257812 331.289062 343.667969 " fill-opacity="1" fill-rule="nonzero"/></g></g></g><g clip-path="url(#90f3d72163)"><path fill="#33a674" d="M 257.144531 332.980469 C 257.144531 332.980469 197.179688 334.898438 141.058594 286.746094 C 84.933594 238.59375 76.292969 147.40625 75.652344 148.042969 C 75.011719 148.683594 160.582031 131.53125 223.214844 188.417969 C 285.847656 245.304688 257.144531 332.980469 257.144531 332.980469 Z M 373.554688 272.367188 C 391.480469 236.675781 389.984375 191.082031 389.984375 191.082031 C 389.984375 191.082031 332.261719 190.65625 300.25 230.179688 C 258.851562 281.101562 275.925781 341.609375 275.925781 341.609375 C 275.925781 341.609375 347.625 323.925781 373.554688 272.367188 Z M 373.554688 272.367188 " fill-opacity="1" fill-rule="nonzero"/></g><g clip-path="url(#c447015a07)"><path fill="#502020" d="M 333.433594 243.175781 C 331.40625 241.046875 327.992188 241.046875 325.859375 243.070312 C 292.035156 276.308594 275.390625 315.828125 267.28125 356.097656 C 258.320312 310.503906 233.246094 241.257812 162.929688 204.824219 C 160.261719 203.441406 157.0625 204.503906 155.78125 207.0625 C 154.394531 209.617188 155.460938 212.921875 158.023438 214.199219 C 256.183594 265.121094 261.304688 384.542969 261.519531 398.925781 C 260.453125 412.453125 260.132812 425.769531 260.027344 438.765625 C 260.027344 441.75 262.375 444.09375 265.359375 444.09375 C 268.242188 444.09375 270.695312 441.75 270.695312 438.765625 C 270.800781 426.621094 271.121094 414.265625 271.976562 401.695312 C 272.082031 401.269531 272.191406 400.839844 272.191406 400.414062 L 272.191406 399.242188 C 276.246094 347.148438 290.007812 293.03125 333.328125 250.527344 C 335.460938 248.609375 335.460938 245.304688 333.433594 243.175781 Z M 333.433594 243.175781 " fill-opacity="1" fill-rule="nonzero"/></g><g clip-path="url(#2223b61066)"><g clip-path="url(#b399d91dfa)"><g clip-path="url(#a869e26a92)"><path fill="#1bcd7f" d="M 406.09375 278.035156 C 450.90625 222.042969 436.136719 135.765625 436.136719 135.765625 C 436.136719 135.765625 347.535156 139.316406 302.726562 195.308594 C 257.914062 251.308594 273.863281 338.535156 273.863281 338.535156 C 273.863281 338.535156 361.28125 334.03125 406.09375 278.035156 " fill-opacity="1" fill-rule="nonzero"/></g></g></g><g clip-path="url(#e3666f6c34)"><path fill="#641818" d="M 267.40625 462.683594 C 219.355469 462.683594 180.40625 501.632812 180.40625 549.683594 C 180.40625 597.730469 219.355469 636.683594 267.40625 636.683594 C 315.453125 636.683594 354.40625 597.730469 354.40625 549.683594 C 354.40625 501.632812 315.453125 462.683594 267.40625 462.683594 " fill-opacity="1" fill-rule="nonzero"/></g></svg>