<svg xmlns="http://www.w3.org/2000/svg" xmlns:xlink="http://www.w3.org/1999/xlink" width="2397" zoomAndPan="magnify" viewBox="0 0 1797.75 931.499968" height="1242" preserveAspectRatio="xMidYMid meet" version="1.0"><defs><g/><clipPath id="ad013d6efe"><path d="M 651.019531 177 L 1086.597656 177 L 1086.597656 448 L 651.019531 448 Z M 651.019531 177 " clip-rule="nonzero"/></clipPath><clipPath id="a9fcf5cd2b"><path d="M 761 257 L 1010 257 L 1010 589.707031 L 761 589.707031 Z M 761 257 " clip-rule="nonzero"/></clipPath><clipPath id="7de7babb7f"><path d="M 724 552 L 856 552 L 856 622 L 724 622 Z M 724 552 " clip-rule="nonzero"/></clipPath><clipPath id="9593acae41"><path d="M 726.035156 641.371094 L 710.019531 562.769531 L 854.734375 533.28125 L 870.75 611.882812 Z M 726.035156 641.371094 " clip-rule="nonzero"/></clipPath><clipPath id="1096df94b7"><path d="M 726.035156 641.371094 L 710.019531 562.769531 L 854.734375 533.28125 L 870.75 611.882812 Z M 726.035156 641.371094 " clip-rule="nonzero"/></clipPath><clipPath id="b15d91ff59"><path d="M 968 552 L 1098 552 L 1098 622 L 968 622 Z M 968 552 " clip-rule="nonzero"/></clipPath><clipPath id="2b4e2ce718"><path d="M 951.066406 606.902344 L 971.59375 529.355469 L 1114.367188 567.144531 L 1093.84375 644.691406 Z M 951.066406 606.902344 " clip-rule="nonzero"/></clipPath><clipPath id="2940ded6de"><path d="M 1093.628906 644.632812 L 1114.152344 567.085938 L 971.378906 529.296875 L 950.851562 606.84375 Z M 1093.628906 644.632812 " clip-rule="nonzero"/></clipPath><clipPath id="92f8edcb3e"><path d="M 959 404 L 1143 404 L 1143 588 L 959 588 Z M 959 404 " clip-rule="nonzero"/></clipPath><clipPath id="c7ef4bbd74"><path d="M 1097.257812 340.894531 L 1207.523438 451.160156 L 1005.546875 653.136719 L 895.285156 542.871094 Z M 1097.257812 340.894531 " clip-rule="nonzero"/></clipPath><clipPath id="89331d7db1"><path d="M 1207.300781 450.9375 L 1097.035156 340.671875 L 895.058594 542.648438 L 1005.324219 652.914062 Z M 1207.300781 450.9375 " clip-rule="nonzero"/></clipPath><clipPath id="975b7b101e"><path d="M 925 158 L 1157 158 L 1157 440 L 925 440 Z M 925 158 " clip-rule="nonzero"/></clipPath><clipPath id="91548fa80f"><path d="M 1001.070312 520.949219 L 831.90625 385.570312 L 1080.179688 75.34375 L 1249.339844 210.722656 Z M 1001.070312 520.949219 " clip-rule="nonzero"/></clipPath><clipPath id="17cf5fa765"><path d="M 831.988281 385.636719 L 1001.152344 521.015625 L 1249.421875 210.785156 L 1080.261719 75.410156 Z M 831.988281 385.636719 " clip-rule="nonzero"/></clipPath><clipPath id="9214fa21ce"><path d="M 796.304688 614.925781 L 1036.957031 614.925781 L 1036.957031 855.578125 L 796.304688 855.578125 Z M 796.304688 614.925781 " clip-rule="nonzero"/></clipPath><clipPath id="a2147bf729"><path d="M 695 401 L 879 401 L 879 585 L 695 585 Z M 695 401 " clip-rule="nonzero"/></clipPath><clipPath id="416ae5e4f8"><path d="M 630 447.222656 L 740.265625 336.957031 L 942.242188 538.933594 L 831.976562 649.195312 Z M 630 447.222656 " clip-rule="nonzero"/></clipPath><clipPath id="19833abd41"><path d="M 630 447.222656 L 740.265625 336.957031 L 942.242188 538.933594 L 831.976562 649.195312 Z M 630 447.222656 " clip-rule="nonzero"/></clipPath></defs><g clip-path="url(#ad013d6efe)"><path fill="#33a674" d="M 902.375 435.644531 C 902.375 435.644531 819.457031 438.300781 741.851562 371.664062 C 664.246094 305.027344 652.292969 178.832031 651.410156 179.714844 C 650.523438 180.601562 768.851562 156.863281 855.457031 235.589844 C 942.0625 314.316406 902.375 435.644531 902.375 435.644531 Z M 1063.339844 351.761719 C 1088.125 302.375 1086.058594 239.277344 1086.058594 239.277344 C 1086.058594 239.277344 1006.242188 238.6875 961.980469 293.378906 C 904.734375 363.851562 928.339844 447.585938 928.339844 447.585938 C 928.339844 447.585938 1027.484375 423.113281 1063.339844 351.761719 Z M 1063.339844 351.761719 " fill-opacity="1" fill-rule="nonzero"/></g><g clip-path="url(#a9fcf5cd2b)"><path fill="#502020" d="M 1007.863281 311.367188 C 1005.058594 308.417969 1000.339844 308.417969 997.386719 311.21875 C 950.617188 357.214844 927.601562 411.910156 916.390625 467.636719 C 903.996094 404.539062 869.324219 308.710938 772.097656 258.292969 C 768.40625 256.375 763.980469 257.851562 762.210938 261.390625 C 760.292969 264.925781 761.769531 269.496094 765.308594 271.265625 C 901.046875 341.734375 908.128906 507 908.421875 526.902344 C 906.945312 545.625 906.503906 564.054688 906.355469 582.039062 C 906.355469 586.167969 909.601562 589.410156 913.734375 589.410156 C 917.71875 589.410156 921.109375 586.167969 921.109375 582.039062 C 921.257812 565.234375 921.699219 548.132812 922.882812 530.734375 C 923.027344 530.144531 923.175781 529.554688 923.175781 528.964844 L 923.175781 527.34375 C 928.78125 455.253906 947.816406 380.363281 1007.714844 321.539062 C 1010.667969 318.886719 1010.667969 314.316406 1007.863281 311.367188 Z M 1007.863281 311.367188 " fill-opacity="1" fill-rule="nonzero"/></g><g fill="#000000" fill-opacity="1"><g transform="translate(422.822893, 618.015268)"><g><path d="M 114.164062 -82.632812 C 126.394531 -89.15625 134.277344 -100.574219 134.277344 -117.695312 C 134.277344 -146.511719 112.53125 -163.089844 85.078125 -163.089844 L 16.039062 -163.089844 L 16.039062 0 L 91.332031 0 C 118.511719 0 139.714844 -15.765625 139.714844 -44.578125 C 139.714844 -64.421875 129.386719 -76.652344 114.164062 -82.632812 Z M 98.398438 -113.890625 C 98.398438 -104.378906 90.515625 -96.222656 80.730469 -96.222656 L 51.917969 -96.222656 L 51.917969 -131.289062 L 80.730469 -131.289062 C 90.515625 -131.289062 98.398438 -123.675781 98.398438 -113.890625 Z M 86.167969 -31.800781 L 51.917969 -31.800781 L 51.917969 -66.867188 L 86.167969 -66.867188 C 96.222656 -66.867188 103.835938 -58.710938 103.835938 -49.199219 C 103.835938 -39.414062 96.222656 -31.800781 86.167969 -31.800781 Z M 86.167969 -31.800781 "/></g></g></g><g fill="#000000" fill-opacity="1"><g transform="translate(582.153125, 618.015268)"><g><path d="M 51.917969 -31.800781 L 51.917969 -163.089844 L 16.039062 -163.089844 L 16.039062 0 L 106.007812 0 L 106.007812 -31.800781 Z M 51.917969 -31.800781 "/></g></g></g><g fill="#000000" fill-opacity="1"><g transform="translate(700.427805, 618.015268)"><g/></g></g><g fill="#000000" fill-opacity="1"><g transform="translate(777.402711, 618.015268)"><g/></g></g><g fill="#000000" fill-opacity="1"><g transform="translate(854.377618, 618.015268)"><g/></g></g><g fill="#000000" fill-opacity="1"><g transform="translate(931.352517, 618.015268)"><g/></g></g><g fill="#000000" fill-opacity="1"><g transform="translate(1008.32743, 618.015268)"><g/></g></g><g fill="#000000" fill-opacity="1"><g transform="translate(1085.302342, 618.015268)"><g/></g></g><g fill="#000000" fill-opacity="1"><g transform="translate(1162.264306, 618.015268)"><g><path d="M 158.199219 -163.089844 L 106.28125 -50.285156 L 54.90625 -163.089844 L 16.039062 -163.089844 L 16.039062 0 L 51.917969 0 L 51.917969 -97.3125 L 95.953125 0 L 116.609375 0 L 160.917969 -97.039062 L 160.917969 0 L 196.796875 0 L 196.796875 -163.089844 Z M 158.199219 -163.089844 "/></g></g></g><g clip-path="url(#7de7babb7f)"><g clip-path="url(#9593acae41)"><g clip-path="url(#1096df94b7)"><path fill="#36594a" d="M 783.601562 554.148438 C 819.730469 546.789062 855.707031 573.636719 855.707031 573.636719 C 855.707031 573.636719 833.261719 613.179688 797.128906 620.539062 C 760.992188 627.902344 724.863281 600.296875 724.863281 600.296875 C 724.863281 600.296875 747.464844 561.511719 783.601562 554.148438 " fill-opacity="1" fill-rule="nonzero"/></g></g></g><g clip-path="url(#b15d91ff59)"><g clip-path="url(#2b4e2ce718)"><g clip-path="url(#2940ded6de)"><path fill="#36594a" d="M 1041.191406 554.234375 C 1005.542969 544.800781 968.078125 569.527344 968.078125 569.527344 C 968.078125 569.527344 988.207031 610.300781 1023.855469 619.734375 C 1059.503906 629.171875 1097.167969 603.695312 1097.167969 603.695312 C 1097.167969 603.695312 1076.839844 563.671875 1041.191406 554.234375 " fill-opacity="1" fill-rule="nonzero"/></g></g></g><g clip-path="url(#92f8edcb3e)"><g clip-path="url(#c7ef4bbd74)"><g clip-path="url(#89331d7db1)"><path fill="#22c683" d="M 1004.667969 450.210938 C 954.242188 500.636719 959.40625 587.542969 959.40625 587.542969 C 959.40625 587.542969 1047.375 593.769531 1097.800781 543.34375 C 1148.226562 492.917969 1142.003906 404.945312 1142.003906 404.945312 C 1142.003906 404.945312 1055.09375 399.785156 1004.667969 450.210938 " fill-opacity="1" fill-rule="nonzero"/></g></g></g><g clip-path="url(#975b7b101e)"><g clip-path="url(#91548fa80f)"><g clip-path="url(#17cf5fa765)"><path fill="#1bcd7f" d="M 1112.074219 355.410156 C 1174.058594 277.957031 1153.679688 158.660156 1153.679688 158.660156 C 1153.679688 158.660156 1031.179688 163.613281 969.195312 241.066406 C 907.207031 318.523438 929.21875 439.136719 929.21875 439.136719 C 929.21875 439.136719 1050.085938 432.867188 1112.074219 355.410156 " fill-opacity="1" fill-rule="nonzero"/></g></g></g><g clip-path="url(#9214fa21ce)"><path fill="#641818" d="M 916.628906 614.925781 C 850.175781 614.925781 796.304688 668.796875 796.304688 735.25 C 796.304688 801.707031 850.175781 855.578125 916.628906 855.578125 C 983.085938 855.578125 1036.957031 801.707031 1036.957031 735.25 C 1036.957031 668.796875 983.085938 614.925781 916.628906 614.925781 " fill-opacity="1" fill-rule="nonzero"/></g><g clip-path="url(#a2147bf729)"><g clip-path="url(#416ae5e4f8)"><g clip-path="url(#19833abd41)"><path fill="#22c683" d="M 832.632812 446.496094 C 883.058594 496.921875 877.894531 583.824219 877.894531 583.824219 C 877.894531 583.824219 789.925781 590.054688 739.5 539.628906 C 689.074219 489.203125 695.296875 401.226562 695.296875 401.226562 C 695.296875 401.226562 782.207031 396.070312 832.632812 446.496094 " fill-opacity="1" fill-rule="nonzero"/></g></g></g></svg>