<svg xmlns="http://www.w3.org/2000/svg" xmlns:xlink="http://www.w3.org/1999/xlink" width="1135" zoomAndPan="magnify" viewBox="0 0 851.25 370.499989" height="494" preserveAspectRatio="xMidYMid meet" version="1.0"><defs><clipPath id="4c3e55d206"><path d="M 75.742188 75.089844 L 775.296875 75.089844 L 775.296875 294.542969 L 75.742188 294.542969 Z M 75.742188 75.089844 " clip-rule="nonzero"/></clipPath><clipPath id="236ecffc6d"><path d="M 110 142 L 286 142 L 286 245 L 110 245 Z M 110 142 " clip-rule="nonzero"/></clipPath><clipPath id="0761bc36a1"><path d="M 140.441406 111.742188 L 291.890625 151.34375 L 254.371094 294.820312 L 102.925781 255.214844 Z M 140.441406 111.742188 " clip-rule="nonzero"/></clipPath><clipPath id="85d39708e7"><path d="M 140.441406 111.742188 L 291.890625 151.34375 L 254.371094 294.820312 L 102.925781 255.214844 Z M 140.441406 111.742188 " clip-rule="nonzero"/></clipPath></defs><g clip-path="url(#4c3e55d206)"><path fill="#7ed957" d="M 75.746094 75.089844 L 775.292969 75.089844 L 775.292969 294.542969 L 75.746094 294.542969 L 75.746094 75.089844 " fill-opacity="1" fill-rule="nonzero"/></g><g clip-path="url(#236ecffc6d)"><g clip-path="url(#0761bc36a1)"><g clip-path="url(#85d39708e7)"><path fill="#ffffff" d="M 251.382812 168.074219 C 180.0625 149.082031 133.015625 172.390625 111.695312 240.53125 C 111.425781 241.386719 110.144531 241.105469 110.25 240.210938 C 112.957031 216.835938 118.945312 196.453125 129.339844 180.089844 C 163.644531 126.082031 237.710938 137.1875 283.949219 169.210938 C 286.253906 170.808594 285.910156 174.226562 283.347656 175.367188 C 235.140625 196.820312 217.8125 285.246094 130.621094 222.160156 C 158.097656 179.023438 196.804688 157.964844 251.382812 168.074219 " fill-opacity="1" fill-rule="evenodd"/></g></g></g></svg>