<svg xmlns="http://www.w3.org/2000/svg" xmlns:xlink="http://www.w3.org/1999/xlink" width="1135" zoomAndPan="magnify" viewBox="0 0 851.25 370.499989" height="494" preserveAspectRatio="xMidYMid meet" version="1.0"><defs><clipPath id="e253d9e3cb"><path d="M 75.742188 75.308594 L 775.296875 75.308594 L 775.296875 294.761719 L 75.742188 294.761719 Z M 75.742188 75.308594 " clip-rule="nonzero"/></clipPath><clipPath id="d0162857df"><path d="M 110 142 L 286 142 L 286 245 L 110 245 Z M 110 142 " clip-rule="nonzero"/></clipPath><clipPath id="b28e9d69e0"><path d="M 140.441406 111.960938 L 291.890625 151.5625 L 254.371094 295.039062 L 102.925781 255.4375 Z M 140.441406 111.960938 " clip-rule="nonzero"/></clipPath><clipPath id="d70b9d33cc"><path d="M 140.441406 111.960938 L 291.890625 151.5625 L 254.371094 295.039062 L 102.925781 255.4375 Z M 140.441406 111.960938 " clip-rule="nonzero"/></clipPath></defs><g clip-path="url(#e253d9e3cb)"><path fill="#ffffff" d="M 75.746094 75.308594 L 775.292969 75.308594 L 775.292969 294.761719 L 75.746094 294.761719 L 75.746094 75.308594 " fill-opacity="1" fill-rule="nonzero"/></g><g clip-path="url(#d0162857df)"><g clip-path="url(#b28e9d69e0)"><g clip-path="url(#d70b9d33cc)"><path fill="#7ed957" d="M 251.382812 168.292969 C 180.0625 149.300781 133.015625 172.609375 111.695312 240.75 C 111.425781 241.605469 110.144531 241.324219 110.25 240.433594 C 112.957031 217.054688 118.945312 196.671875 129.339844 180.308594 C 163.644531 126.300781 237.710938 137.40625 283.949219 169.429688 C 286.253906 171.027344 285.910156 174.445312 283.347656 175.585938 C 235.140625 197.039062 217.8125 285.46875 130.621094 222.378906 C 158.097656 179.242188 196.804688 158.183594 251.382812 168.292969 " fill-opacity="1" fill-rule="evenodd"/></g></g></g></svg>